<?xml version="1.0" standalone="no"?>
<!DOCTYPE svg PUBLIC "-//W3C//DTD SVG 20010904//EN"
 "http://www.w3.org/TR/2001/REC-SVG-20010904/DTD/svg10.dtd">
<svg version="1.0" xmlns="http://www.w3.org/2000/svg"
 width="599.000000pt" height="599.000000pt" viewBox="0 0 599.000000 599.000000"
 preserveAspectRatio="xMidYMid meet">

<g transform="translate(0.000000,599.000000) scale(0.100000,-0.100000)"
fill="#000000" stroke="none">
<path d="M2530 5400 c-12 -12 -20 -33 -20 -55 0 -22 8 -43 20 -55 19 -19 33
-20 480 -20 444 0 460 1 470 19 17 32 12 96 -8 114 -17 15 -64 17 -470 17
-439 0 -453 -1 -472 -20z"/>
<path d="M2530 5192 c0 -34 3 -43 11 -35 6 6 18 9 25 6 11 -4 14 5 14 35 0 35
-3 40 -25 40 -23 0 -25 -4 -25 -46z m27 -4 c-3 -8 -6 -5 -6 6 -1 11 2 17 5 13
3 -3 4 -12 1 -19z"/>
<path d="M2607 5232 c-12 -2 -17 -14 -17 -36 0 -18 2 -35 5 -37 2 -3 38 -1 80
5 56 7 79 6 84 -2 8 -13 161 -12 161 1 0 4 18 7 40 7 22 0 40 5 40 10 0 6 18
10 40 10 29 0 40 4 40 15 0 11 11 15 40 15 29 0 40 -4 40 -15 0 -11 11 -15 40
-15 29 0 40 4 40 15 0 11 11 15 42 15 23 0 38 3 35 7 -7 6 -678 11 -710 5z
m216 -29 c-13 -2 -33 -2 -45 0 -13 2 -3 4 22 4 25 0 35 -2 23 -4z"/>
<path d="M3450 5226 c0 -9 5 -16 10 -16 6 0 10 4 10 9 0 6 -4 13 -10 16 -5 3
-10 -1 -10 -9z"/>
<path d="M3400 5220 c0 -5 5 -10 10 -10 6 0 10 5 10 10 0 6 -4 10 -10 10 -5 0
-10 -4 -10 -10z"/>
<path d="M3320 5190 c0 -5 -19 -10 -42 -10 -23 0 -39 -2 -36 -5 9 -9 198 7
198 16 0 5 -27 9 -60 9 -33 0 -60 -4 -60 -10z"/>
<path d="M3454 5175 c4 -36 11 -39 14 -5 1 17 -2 30 -7 30 -5 0 -8 -11 -7 -25z"/>
<path d="M3080 5170 c0 -5 18 -10 40 -10 22 0 40 5 40 10 0 6 -18 10 -40 10
-22 0 -40 -4 -40 -10z"/>
<path d="M2688 5153 c6 -2 18 -2 25 0 6 3 1 5 -13 5 -14 0 -19 -2 -12 -5z"/>
<path d="M2608 5133 c6 -2 18 -2 25 0 6 3 1 5 -13 5 -14 0 -19 -2 -12 -5z"/>
<path d="M2704 5130 c16 -5 54 -5 85 -1 55 8 55 9 -29 9 -63 0 -77 -2 -56 -8z"/>
<path d="M3430 5130 c0 -5 6 -11 13 -13 6 -3 -117 -6 -274 -6 -157 -1 -368 -4
-467 -8 l-182 -6 0 -42 c0 -48 30 -95 61 -95 18 0 20 -6 17 -77 l-3 -77 -191
-146 c-105 -80 -296 -226 -425 -324 -129 -99 -296 -227 -372 -284 -76 -58
-158 -124 -182 -147 l-45 -41 0 -111 c0 -148 -6 -143 184 -143 l148 0 -2 -187
c-3 -272 -8 -247 52 -304 l51 -49 -147 0 -146 0 -11 -26 c-11 -32 -5 -55 21
-79 15 -14 38 -18 100 -19 48 -1 84 -6 88 -12 4 -7 20 -12 36 -12 40 1 76 -42
76 -88 0 -28 5 -36 25 -44 40 -15 72 3 84 48 13 47 1 124 -23 151 -9 10 -16
23 -16 30 0 7 -4 10 -9 6 -5 -3 -12 -1 -15 4 -11 17 42 21 75 5 20 -9 25 -13
11 -10 -13 2 -20 0 -16 -6 4 -6 -2 -8 -16 -3 -20 6 -21 5 -9 -8 10 -10 18 -12
26 -5 17 14 35 0 28 -23 -5 -14 -2 -17 8 -13 9 3 22 -4 31 -18 23 -32 20 -15
-4 24 -29 49 -24 59 6 13 34 -51 52 -65 84 -65 16 0 29 -8 35 -22 6 -12 17
-24 25 -26 12 -4 13 -2 3 9 -7 7 -13 19 -13 27 0 10 3 10 16 -2 18 -19 20 -19
45 -6 18 10 19 25 19 359 l0 349 65 4 c51 2 65 0 67 -12 2 -8 3 -94 2 -190 -6
-539 -6 -521 12 -608 3 -17 10 -22 27 -20 20 3 23 10 30 93 4 50 5 161 3 248
l-4 157 54 0 54 0 0 -379 c0 -431 10 -391 -96 -391 l-64 0 0 61 c0 70 -11 96
-46 109 -15 6 -204 10 -445 10 -400 0 -422 -1 -466 -20 -37 -16 -67 -20 -157
-20 -147 0 -198 -15 -270 -81 -40 -36 -61 -65 -75 -105 -39 -102 -23 -218 40
-297 l30 -37 -208 -2 c-114 -2 -263 -3 -329 -3 -106 0 -125 -3 -143 -19 -49
-45 -7 -126 66 -126 32 0 42 -5 57 -31 58 -98 371 -431 439 -467 l52 -27 459
-3 c317 -2 462 1 471 8 10 8 14 7 18 -2 2 -7 4 15 3 49 -1 49 -6 66 -21 77
-17 13 -86 16 -440 17 -231 1 -402 5 -380 9 35 7 33 7 -16 5 -30 -2 -63 1 -71
6 -25 14 -88 72 -88 81 0 5 316 8 701 8 617 0 705 1 725 15 13 8 24 17 24 18
0 1 4 17 9 35 7 23 7 30 -1 26 -7 -5 -9 1 -5 15 3 13 3 20 0 17 -3 -3 -15 1
-27 9 -17 13 -123 15 -733 15 -416 0 -713 4 -713 9 0 5 -20 11 -44 12 -32 3
-42 1 -39 -8 4 -9 -5 -13 -24 -13 -22 0 -40 11 -71 45 -23 25 -42 50 -42 55 0
7 849 10 2395 10 1367 0 2395 -4 2395 -9 0 -28 -37 -36 -179 -37 -194 -2 -235
-5 -156 -14 42 -5 4 -8 -130 -10 -151 -3 -167 -5 -77 -7 69 -2 110 -7 107 -13
-4 -6 17 -9 52 -8 l58 1 -45 7 c-36 6 -28 7 37 6 59 -1 83 -5 83 -13 0 -10
-214 -13 -1042 -11 -574 1 -1000 5 -948 8 l95 6 -95 5 c-65 3 -18 6 150 9
l245 4 -205 6 c-113 3 -167 7 -121 8 181 5 59 12 -270 16 -189 2 -327 2 -306
-1 20 -2 35 -8 32 -14 -12 -18 24 -38 76 -42 30 -2 -4 -4 -76 -5 -71 -1 -140
-5 -151 -8 -42 -11 -59 -97 -25 -128 17 -16 110 -17 1330 -16 769 0 1311 -3
1311 -9 0 -28 -34 -34 -183 -32 -84 1 -168 4 -187 7 -30 4 -32 3 -12 -6 12 -5
56 -10 97 -11 42 -1 78 -5 81 -10 3 -5 -4 -9 -16 -9 -13 0 -18 -4 -14 -11 4
-7 30 -9 77 -5 72 7 88 -5 19 -13 -20 -2 -440 -7 -932 -10 -492 -4 -896 -8
-897 -9 -1 -1 -21 -19 -45 -40 -49 -42 -51 -50 -52 -149 -1 -64 2 -76 29 -115
19 -27 48 -52 80 -68 45 -23 64 -25 198 -28 116 -3 147 -7 147 -18 0 -7 -8
-18 -19 -23 -23 -13 -174 -4 -264 15 -83 17 -374 19 -527 3 -58 -5 -139 -14
-180 -18 -76 -8 -110 0 -110 26 0 10 32 13 128 13 189 0 264 27 320 114 21 33
26 53 26 101 0 33 -6 74 -14 90 -8 17 -14 36 -15 42 0 7 -3 12 -7 10 -3 -1
-14 6 -24 15 -11 9 -33 22 -49 28 -41 16 -675 14 -709 -1 -40 -19 -49 -86 -16
-119 19 -19 33 -20 344 -20 l324 0 5 -22 c3 -12 4 -25 1 -30 -3 -4 -174 -8
-380 -8 l-374 0 0 -30 c0 -30 0 -30 -58 -30 -48 0 -62 -4 -80 -23 -27 -29 -28
-67 -3 -98 19 -23 25 -24 207 -29 l188 -5 33 -45 c66 -89 106 -131 146 -153
42 -22 44 -22 552 -22 500 0 511 0 555 21 51 24 122 90 145 133 8 16 27 39 41
50 25 19 39 21 199 21 159 0 174 2 199 21 34 27 36 77 3 107 -21 20 -34 22
-125 22 l-102 0 5 30 5 30 -262 1 c-254 1 -341 0 -383 -4 -16 -2 -21 5 -23 30
l-3 33 918 2 c1076 3 953 -13 1104 144 134 138 309 335 322 362 7 16 19 22 42
22 46 0 85 34 85 74 0 18 -6 41 -14 51 -13 18 -30 19 -370 18 l-357 -2 50 47
c68 64 95 127 94 217 0 47 -7 85 -21 117 -72 163 -264 235 -419 158 -34 -17
-66 -37 -73 -45 -10 -12 -16 -9 -38 17 -31 36 -78 58 -125 58 l-34 0 -5 88
c-6 99 -25 147 -82 201 l-36 35 0 298 0 298 155 0 c142 0 155 1 165 19 5 11
10 69 10 130 l0 110 -33 33 c-36 35 -124 103 -779 595 l-418 314 0 74 c0 66 2
75 18 75 31 0 72 52 72 91 0 51 -10 77 -31 82 -10 3 -19 1 -19 -3z m-437 -187
c-7 -2 -21 -2 -30 0 -10 3 -4 5 12 5 17 0 24 -2 18 -5z m-188 -58 c62 -10 105
1 100 26 -3 15 2 19 23 18 17 -1 21 -3 10 -6 -23 -6 -23 -15 1 -30 15 -10 21
-10 24 0 3 8 10 6 25 -7 14 -12 27 -16 39 -10 10 4 62 8 115 8 l98 1 0 -71 c0
-84 -5 -78 185 -219 123 -91 653 -490 922 -693 145 -109 156 -132 68 -132 -30
0 -55 3 -55 6 0 15 30 33 47 27 28 -10 12 2 -27 21 -29 14 -31 14 -16 1 23
-17 14 -20 -15 -4 -11 5 -17 14 -14 18 2 5 -36 40 -87 77 -83 63 -151 108
-106 71 10 -8 14 -18 10 -22 -4 -5 -2 -6 3 -3 6 2 20 -6 32 -19 12 -13 17 -23
10 -23 -7 0 2 -9 18 -20 17 -11 26 -20 21 -20 -5 0 -5 -6 0 -13 5 -7 2 -5 -8
5 -9 10 -19 18 -22 18 -9 0 -51 44 -49 50 1 3 -8 7 -19 7 -12 1 -26 7 -32 14
-8 9 -7 10 4 5 8 -4 6 0 -4 8 -11 9 -27 16 -35 16 -14 0 -14 2 -1 10 13 9 13
12 -2 24 -28 21 -21 28 10 10 26 -16 26 -15 -3 10 -17 14 -37 23 -46 21 -9 -3
-22 2 -30 12 -13 15 -12 16 6 9 17 -6 16 -3 -5 17 -52 48 -141 108 -152 101
-7 -4 -8 -3 -4 4 5 9 -24 33 -44 36 -3 1 -4 5 -2 9 1 5 -2 6 -8 2 -6 -3 -8
-10 -5 -15 3 -4 -3 -14 -13 -21 -15 -13 -16 -12 -4 3 14 17 1 35 -17 23 -5 -3
-13 0 -17 6 -4 8 -3 9 4 5 17 -10 15 3 -3 21 -21 20 -10 30 13 12 10 -8 4 -1
-12 14 -17 16 -60 50 -96 75 -36 26 -73 54 -84 64 -22 20 -46 13 -41 -13 2
-11 0 -17 -6 -14 -5 4 -7 10 -4 15 2 4 -9 13 -25 20 -16 7 -27 17 -24 22 7 11
-17 31 -63 54 -18 9 -30 20 -27 25 4 8 -14 13 -36 11 -4 0 -6 10 -6 23 0 13 4
21 8 19 5 -3 6 -10 3 -15 -3 -5 1 -6 9 -3 11 4 3 16 -31 46 -55 47 -125 93
-136 90 -5 -1 -5 2 -2 8 4 6 0 19 -8 28 -8 9 -17 24 -20 32 -4 12 -6 12 -6 -2
-1 -9 4 -20 9 -23 16 -10 12 -42 -6 -49 -10 -4 -33 8 -63 32 -86 70 -75 67
-128 31 -26 -18 -51 -37 -54 -42 -4 -5 -9 -5 -13 1 -3 5 1 13 10 16 8 3 13 10
9 15 -8 14 5 61 16 61 6 0 5 -8 -1 -19 -15 -29 -13 -44 4 -29 7 7 11 19 9 25
-3 7 -1 13 5 13 6 0 12 -6 15 -12 2 -8 8 -9 13 -4 5 5 3 11 -5 14 -7 2 -21 12
-31 22 -16 16 -17 15 -28 -12 -7 -21 -15 -26 -27 -22 -15 6 -16 4 -6 -14 15
-29 14 -40 -2 -18 -13 17 -14 18 -20 2 -4 -10 -3 -15 3 -11 6 3 7 -1 4 -9 -3
-9 -10 -14 -14 -11 -10 6 -32 -20 -24 -28 4 -3 -8 -18 -25 -33 -20 -16 -30
-33 -26 -41 4 -11 1 -13 -12 -9 -10 4 -14 4 -10 0 11 -11 -23 -43 -39 -37 -7
3 -27 -6 -43 -18 -15 -13 -37 -29 -47 -36 -17 -10 -17 -13 -4 -22 26 -18 1
-12 -27 7 -17 10 -24 12 -19 4 8 -14 -19 -52 -36 -52 -5 0 -2 7 6 16 22 22 20
31 -3 10 -11 -10 -16 -25 -14 -41 5 -22 3 -23 -32 -19 -20 2 -34 0 -31 -4 3
-5 -4 -19 -15 -31 -11 -12 -17 -26 -14 -31 10 -17 -12 -11 -31 8 -17 16 -18
16 -11 0 7 -21 -1 -48 -15 -48 -5 0 -6 6 -3 13 4 6 1 5 -7 -3 -26 -31 -86 -71
-92 -61 -4 5 2 12 11 15 20 7 99 76 86 76 -4 0 -20 -10 -34 -23 -15 -12 -49
-40 -77 -62 -53 -41 -65 -59 -34 -49 14 5 14 4 2 -4 -8 -6 -18 -8 -22 -6 -7 5
-12 -10 -9 -29 1 -4 -7 -3 -17 2 -14 7 -26 4 -51 -16 -18 -14 -30 -31 -27 -39
7 -19 -14 -30 -26 -13 -7 11 -8 11 -6 -2 3 -16 -130 -139 -151 -139 -6 0 -11
-4 -11 -8 0 -4 -15 -16 -32 -27 l-33 -18 20 23 20 24 -30 -22 c-16 -13 -53
-39 -82 -58 -36 -25 -50 -41 -46 -52 4 -14 3 -15 -6 -2 -5 8 -14 11 -18 6 -4
-5 -3 -10 2 -13 36 -13 39 -22 15 -41 -30 -24 -44 -18 -36 14 6 22 5 23 -13
12 -11 -6 -17 -16 -14 -22 3 -5 1 -6 -4 -3 -6 4 -27 -4 -47 -18 -20 -14 -43
-25 -51 -25 -24 0 -17 30 13 55 39 34 287 226 427 331 66 49 187 142 269 205
82 62 226 173 320 245 94 71 172 135 172 142 1 7 3 54 4 105 2 50 5 80 7 65 4
-23 10 -28 48 -33z m35 -155 c0 -5 -5 -10 -11 -10 -5 0 -7 5 -4 10 3 6 8 10
11 10 2 0 4 -4 4 -10z m34 1 c3 -5 -1 -14 -8 -20 -12 -10 -14 -9 -11 6 2 10 4
19 4 21 2 5 10 2 15 -7z m-47 -45 c-8 -8 -17 -12 -21 -9 -3 3 2 12 12 19 22
16 29 9 9 -10z m242 -118 c36 -29 72 -58 79 -65 8 -7 22 -18 33 -24 11 -5 19
-15 18 -22 -3 -24 1 -37 12 -37 16 0 36 -24 34 -41 -2 -8 5 -15 15 -15 9 0 17
6 17 12 0 7 -5 11 -11 10 -6 -2 -7 -1 -3 2 4 2 0 10 -10 17 -10 7 -16 16 -13
19 3 3 19 -7 35 -22 17 -15 40 -34 51 -42 70 -49 185 -143 180 -147 -3 -3 -12
0 -20 6 -11 10 -19 10 -33 1 -16 -9 -15 -10 6 -4 15 4 21 2 17 -4 -4 -7 4 -9
23 -7 22 3 36 -4 61 -30 18 -19 37 -32 42 -29 4 3 8 3 8 0 0 -15 -21 -14 -36
1 -17 17 -18 17 -11 0 5 -13 -1 -20 -25 -30 -27 -11 -29 -14 -15 -20 11 -4 16
-3 12 3 -3 6 2 10 11 10 10 0 14 -3 11 -7 -10 -9 13 -33 32 -33 14 0 14 2 1
10 -8 5 -15 18 -16 29 -1 15 5 18 32 17 18 -2 40 -9 49 -16 14 -12 14 -15 -1
-31 -22 -24 -29 -17 -14 13 l12 23 -21 -23 c-20 -20 -21 -24 -7 -38 10 -9 16
-11 16 -4 0 6 5 8 10 5 6 -4 9 -1 8 7 -2 7 7 14 20 16 12 2 22 -2 22 -8 0 -7
-7 -9 -16 -6 -9 3 -12 2 -9 -5 4 -5 15 -7 24 -4 20 6 105 -51 96 -64 -2 -5 3
-15 13 -22 15 -13 16 -12 3 4 -21 26 -6 21 51 -20 l51 -37 -28 -12 c-21 -9
-24 -12 -11 -17 9 -4 16 -2 16 2 0 17 34 22 46 7 6 -9 14 -16 18 -16 3 0 19
-11 34 -25 16 -14 37 -32 48 -41 10 -9 13 -12 5 -8 -9 4 -12 3 -7 -4 4 -6 13
-9 20 -6 7 3 18 -2 25 -10 12 -14 -93 -15 -972 -16 -753 0 -986 3 -989 12 -3
8 -9 8 -19 2 -8 -5 -51 -9 -96 -9 l-82 0 21 23 c23 24 44 30 32 10 -4 -8 -3
-10 2 -5 5 5 9 13 9 18 0 11 185 159 197 159 5 0 7 -6 5 -12 -1 -8 6 -12 18
-10 11 2 32 4 48 6 15 2 30 5 33 9 8 7 -56 1 -78 -8 -12 -5 -16 -2 -14 10 3
18 76 82 76 67 0 -6 -6 -12 -12 -15 -7 -2 -1 -4 14 -3 29 1 36 10 17 21 -6 4
8 23 33 45 23 22 44 37 47 34 2 -2 10 5 18 16 8 11 21 20 29 20 8 0 14 4 14 8
0 15 143 116 162 115 10 -1 20 2 23 8 3 5 -1 6 -9 3 -28 -11 -17 2 51 56 62
50 67 52 80 35 11 -17 15 -13 12 13 -1 4 -6 6 -12 4 -7 -1 8 16 33 38 50 44
57 47 57 25 0 -9 -6 -14 -14 -11 -8 3 -11 1 -8 -4 4 -6 14 -9 23 -8 9 2 17 -2
17 -9 0 -20 14 -26 29 -14 8 7 21 9 28 5 10 -5 11 -4 1 7 -10 10 -16 10 -25 1
-14 -14 -32 -16 -23 -3 3 5 -1 15 -8 23 -20 20 -15 32 28 69 22 18 42 36 45
39 9 10 75 60 79 60 2 0 33 -24 70 -52z m492 -185 c13 -16 12 -17 -3 -4 -17
13 -22 21 -14 21 2 0 10 -8 17 -17z m148 -66 c9 -12 8 -16 -6 -21 -10 -4 -14
-4 -10 0 13 14 -14 34 -32 24 -13 -6 -18 -5 -18 5 0 7 7 11 15 7 11 -4 13 -1
7 7 -10 17 27 -2 44 -22z m-1452 -42 c0 -8 -4 -15 -9 -15 -10 0 -11 14 -1 23
9 10 10 9 10 -8z m1558 -55 c-3 -5 -1 -10 6 -10 7 0 9 -3 6 -7 -4 -3 -1 -13 6
-22 11 -14 10 -14 -5 -2 -10 7 -18 10 -18 6 0 -4 -7 -2 -16 6 -14 12 -14 14 2
26 21 16 27 17 19 3z m-1657 -27 c-10 -2 -18 -8 -18 -13 0 -4 -7 -10 -15 -14
-19 -7 -19 -1 1 18 8 9 23 15 32 15 15 -1 15 -2 0 -6z m1707 -25 c0 -6 6 -13
14 -16 8 -3 11 0 8 5 -3 5 0 10 8 10 8 0 13 -3 10 -5 -3 -3 3 -11 13 -18 11
-9 13 -13 4 -14 -7 0 -10 -4 -7 -10 3 -5 1 -10 -5 -10 -7 0 -9 7 -6 16 6 15 4
15 -11 3 -9 -8 -14 -9 -10 -3 7 12 -19 29 -37 25 -5 -1 -4 4 2 12 7 8 10 17 7
20 -3 4 -2 4 3 1 4 -3 7 -11 7 -16z m89 -66 c2 -4 -4 -8 -14 -8 -10 0 -16 4
-14 8 3 4 9 8 14 8 5 0 11 -4 14 -8z m-2169 -202 c-10 -11 -23 -20 -29 -20 -6
0 0 9 14 20 32 25 38 25 15 0z m-152 -127 c-7 -2 -19 -2 -25 0 -7 3 -2 5 12 5
14 0 19 -2 13 -5z m922 -239 l0 -79 -62 -3 -63 -3 0 83 0 83 62 -1 63 -2 0
-78z m213 3 l3 -77 -65 0 c-74 0 -76 2 -76 91 0 46 3 59 15 59 9 0 15 -10 16
-27 1 -17 3 -21 6 -10 2 9 14 17 26 18 20 1 20 2 -3 9 -24 7 -23 7 10 12 65 9
65 10 68 -75z m400 0 l3 -77 -66 0 -65 0 0 78 0 77 63 -1 62 0 3 -77z m193 73
c5 0 9 -34 9 -75 l0 -75 -65 0 -65 0 0 74 0 75 43 4 c23 2 48 2 55 0 8 -2 18
-3 23 -3z m-1411 -10 c-8 -5 -10 -10 -4 -10 8 0 12 -34 13 -103 2 -83 -1 -106
-14 -117 -20 -16 -19 -74 1 -105 18 -28 13 -33 -10 -9 -9 8 -16 11 -16 5 0
-17 26 -27 96 -38 25 -4 35 1 57 27 15 17 27 26 27 19 0 -7 3 -10 6 -6 8 8
-55 107 -67 107 -5 0 -9 54 -9 120 l0 120 59 0 c38 0 60 -4 63 -12 3 -7 5
-133 6 -280 l1 -268 -28 28 c-16 15 -83 59 -148 97 l-120 70 -6 174 c-4 95 -4
177 -1 182 3 5 29 9 57 9 37 0 48 -3 37 -10z m1020 -65 l0 -75 -71 0 c-61 0
-70 2 -65 16 3 9 6 41 6 72 l0 57 65 3 65 2 0 -75z m602 10 c0 -36 1 -71 2
-77 1 -9 -18 -13 -64 -13 l-65 0 -3 78 -3 77 66 0 65 0 2 -65z m192 50 c-4 -8
-2 -15 4 -15 6 0 8 -128 5 -368 -3 -242 -1 -382 6 -408 6 -21 13 -55 16 -75
l6 -37 -65 -4 c-89 -5 -104 -21 -108 -107 l-3 -66 -82 -3 -83 -3 0 386 0 385
55 0 55 0 0 -224 c0 -124 4 -236 10 -250 11 -29 44 -35 54 -10 3 9 6 189 6
401 l0 385 45 -4 c24 -1 40 1 36 5 -5 5 -25 9 -45 10 -64 2 -38 17 29 17 53 0
63 -3 59 -15z m216 -285 l0 -300 -23 0 c-52 0 -56 -14 -58 -168 0 -78 -4 -144
-8 -147 -4 -2 -21 0 -37 5 -20 6 -23 9 -9 9 21 1 23 9 28 91 1 32 -2 44 -10
42 -10 -1 -13 80 -13 383 l0 385 65 0 65 0 0 -300z m169 35 c1 -146 -1 -281
-5 -300 -6 -34 -8 -35 -50 -35 l-44 0 0 300 0 300 49 0 49 0 1 -265z m-843
-82 c-3 -21 -6 -284 -6 -585 l0 -548 -300 0 -300 0 0 563 c0 309 -3 572 -6
585 l-6 22 312 0 313 0 -7 -37z m-1442 -199 c5 -14 4 -15 -9 -4 -17 14 -19 20
-6 20 5 0 12 -7 15 -16z m2386 -223 c5 -11 9 -30 9 -43 -1 -15 -3 -18 -6 -6
-3 13 -19 17 -73 20 -37 2 -66 -1 -63 -6 3 -4 0 -12 -6 -16 -7 -4 1 -7 18 -8
16 0 39 -5 50 -11 26 -14 52 -15 31 -1 -9 6 -10 10 -3 10 19 0 25 -18 13 -40
-8 -14 -8 -20 0 -20 6 0 8 -4 5 -10 -3 -5 -35 -10 -71 -10 l-64 0 0 60 c0 57
-1 60 -25 60 -18 0 -25 5 -25 20 0 19 7 20 100 20 88 0 100 -2 110 -19z
m-2032 -335 c3 -32 1 -38 -13 -32 -9 3 -33 7 -53 8 -37 1 -36 1 8 8 25 4 -100
8 -277 8 -295 2 -323 1 -323 -15 0 -24 -6 -13 -13 24 l-6 33 297 3 c163 1 315
3 337 2 39 0 40 -1 43 -39z m2175 35 c73 -1 78 -2 75 -22 -3 -20 -7 -20 -335
-19 -263 0 -333 -2 -334 -12 0 -7 -5 -2 -10 11 -5 14 -8 29 -6 35 4 10 172 12
610 7z m459 -1 c73 -21 128 -87 128 -155 0 -78 -56 -136 -148 -154 -63 -12
-72 -21 -72 -72 l0 -29 -86 0 -86 0 7 38 c4 20 11 80 14 132 10 139 48 200
147 235 48 17 50 17 96 5z m-3449 -152 c3 -85 11 -143 26 -188 11 -36 21 -68
21 -72 0 -3 -56 -5 -124 -5 -123 2 -123 2 -154 32 -16 17 -43 40 -60 52 -63
48 -84 168 -39 233 39 57 76 70 208 70 l116 0 6 -122z m733 -81 c15 -15 -18
-86 -59 -131 l-43 -46 -190 0 -190 0 -27 28 c-31 32 -57 91 -57 129 l0 28 280
-1 c154 0 283 -3 286 -7z m309 3 c-3 -5 0 -10 8 -10 10 0 13 -9 11 -27 -2 -16
-1 -20 2 -10 6 20 20 23 26 5 3 -7 7 -6 11 5 4 11 1 17 -8 17 -8 0 -15 7 -15
15 0 8 8 15 18 15 37 0 43 -14 41 -103 l-2 -87 -53 0 -54 0 0 95 c0 60 4 95
11 95 5 0 7 -4 4 -10z m1125 -87 l0 -93 -55 0 -55 0 0 95 0 95 55 -2 55 -3 0
-92z m885 47 c-2 -14 -7 -51 -10 -82 l-6 -58 -222 0 c-159 1 -227 4 -238 13
-24 18 -46 67 -54 119 l-7 48 263 2 c159 2 267 -1 271 -7 4 -5 5 -21 3 -35z
m-754 -112 l20 -28 -39 0 -39 0 -1 78 -1 77 20 -49 c11 -27 29 -62 40 -78z
m-1350 38 c5 3 9 0 9 -5 0 -6 -8 -12 -17 -12 -17 -1 -17 -2 0 -6 9 -2 17 -13
17 -24 0 -15 -7 -19 -35 -19 -19 0 -35 2 -35 4 0 15 45 77 48 68 2 -7 8 -10
13 -6z m606 -292 c-3 -3 -12 -4 -19 -1 -8 3 -5 6 6 6 11 1 17 -2 13 -5z m-194
-21 c-7 -2 -21 -2 -30 0 -10 3 -4 5 12 5 17 0 24 -2 18 -5z m205 0 c-21 -2
-57 -2 -80 0 -24 2 -7 4 37 4 44 0 63 -2 43 -4z m35 -20 c-29 -2 -77 -2 -105
0 -29 2 -6 3 52 3 58 0 81 -1 53 -3z m2078 -220 c5 -5 -12 -6 -36 -5 -25 2
-45 9 -45 14 0 12 68 4 81 -9z m-2495 -531 c-32 -2 -63 1 -67 5 -4 4 22 6 59
3 l67 -5 -59 -3z"/>
<path d="M3105 4840 c-3 -5 -1 -10 4 -10 6 0 11 5 11 10 0 6 -2 10 -4 10 -3 0
-8 -4 -11 -10z"/>
<path d="M2965 4830 c3 -5 13 -10 21 -10 8 0 12 5 9 10 -3 6 -13 10 -21 10 -8
0 -12 -4 -9 -10z"/>
<path d="M3016 4832 c-3 -5 11 -23 30 -40 30 -26 34 -28 28 -10 -4 14 -2 18 5
14 6 -4 11 0 11 10 0 13 -3 14 -15 4 -12 -10 -18 -10 -30 0 -8 7 -12 16 -9 21
3 5 1 9 -5 9 -5 0 -12 -4 -15 -8z"/>
<path d="M3090 4770 c0 -5 10 -20 21 -31 17 -17 23 -19 30 -8 10 17 1 32 -17
25 -8 -3 -14 1 -14 9 0 8 -4 15 -10 15 -5 0 -10 -4 -10 -10z"/>
<path d="M2738 4670 l-33 -30 32 17 c18 10 35 24 38 31 7 19 -2 15 -37 -18z"/>
<path d="M2642 4595 c-20 -19 -32 -35 -26 -35 5 0 25 16 44 35 44 45 31 45
-18 0z"/>
<path d="M3385 4550 c-3 -6 1 -7 9 -4 18 7 21 14 7 14 -6 0 -13 -4 -16 -10z"/>
<path d="M3434 4525 c8 -8 18 -15 22 -15 3 0 1 7 -6 15 -7 8 -17 15 -22 15 -5
0 -3 -7 6 -15z"/>
<path d="M3479 4487 c11 -14 11 -17 0 -17 -10 -1 -8 -4 4 -11 19 -11 41 -3 32
12 -4 5 -16 14 -28 21 -20 10 -21 10 -8 -5z"/>
<path d="M2415 4420 c-16 -17 -16 -20 -3 -15 9 4 19 13 22 21 7 19 2 18 -19
-6z"/>
<path d="M1967 4073 c-37 -31 -65 -58 -63 -61 3 -3 23 10 45 29 21 19 54 46
72 62 18 15 29 27 24 26 -6 0 -41 -25 -78 -56z"/>
<path d="M2979 4593 c-12 -15 -12 -16 5 -10 14 6 17 4 12 -9 -4 -11 -2 -15 6
-11 13 5 85 -29 81 -38 -2 -3 0 -5 4 -6 22 -2 9 20 -17 31 -18 7 -38 24 -47
37 -18 27 -26 29 -44 6z"/>
<path d="M2906 4532 c-3 -5 1 -9 9 -9 8 0 12 4 9 9 -3 4 -7 8 -9 8 -2 0 -6 -4
-9 -8z"/>
<path d="M2950 4533 c5 -2 8 -9 4 -14 -3 -5 0 -9 6 -9 15 0 7 23 -8 26 -7 1
-8 0 -2 -3z"/>
<path d="M2920 4504 c0 -2 9 -8 20 -14 11 -6 20 -7 20 -2 0 6 -9 12 -20 15
-11 3 -20 3 -20 1z"/>
<path d="M2850 4480 c0 -5 5 -10 10 -10 6 0 10 5 10 10 0 6 -4 10 -10 10 -5 0
-10 -4 -10 -10z"/>
<path d="M2998 4483 c7 -3 16 -2 19 1 4 3 -2 6 -13 5 -11 0 -14 -3 -6 -6z"/>
<path d="M2962 4447 c-134 -98 -200 -159 -208 -193 -8 -29 19 -161 42 -210 28
-59 131 -124 198 -124 38 0 120 37 164 75 43 36 59 68 77 156 18 83 11 118
-33 165 -31 34 -169 138 -194 147 -9 3 -30 -4 -46 -16z m71 -187 c17 -18 37
-30 52 -30 31 0 32 -18 4 -54 -15 -19 -19 -34 -14 -56 5 -23 3 -32 -10 -36 -9
-4 -21 -2 -28 5 -14 14 -64 15 -72 1 -3 -5 -15 -10 -27 -10 -18 0 -20 4 -14
45 6 38 4 46 -13 57 -32 20 -27 48 9 48 23 0 33 7 45 30 9 17 21 30 29 30 7 0
25 -13 39 -30z"/>
<path d="M3127 4419 c7 -7 15 -10 18 -7 3 3 -2 9 -12 12 -14 6 -15 5 -6 -5z"/>
<path d="M2680 4350 c0 -5 5 -10 10 -10 6 0 10 5 10 10 0 6 -4 10 -10 10 -5 0
-10 -4 -10 -10z"/>
<path d="M2776 4352 c-2 -4 0 -14 6 -22 8 -12 9 -11 4 4 -5 14 -2 17 9 12 9
-3 13 -2 10 4 -7 12 -22 13 -29 2z"/>
<path d="M3329 4348 c-1 -2 -3 -13 -4 -26 -2 -17 1 -20 11 -11 7 6 19 7 25 3
8 -5 9 -3 5 5 -5 7 -15 10 -23 7 -11 -4 -13 -2 -9 9 4 12 0 23 -5 13z"/>
<path d="M2640 4325 c0 -7 30 -13 34 -7 3 4 -4 9 -15 9 -10 1 -19 0 -19 -2z"/>
<path d="M2636 4292 c-2 -4 4 -8 14 -8 10 0 16 4 14 8 -3 4 -9 8 -14 8 -5 0
-11 -4 -14 -8z"/>
<path d="M3345 4292 c6 -4 15 -16 21 -27 15 -28 41 -31 39 -5 -1 11 -7 26 -15
33 -10 9 -11 9 -6 0 8 -15 -10 -18 -19 -3 -3 6 -12 10 -18 10 -8 0 -8 -3 -2
-8z"/>
<path d="M3400 4219 c0 -5 5 -7 10 -4 6 3 10 8 10 11 0 2 -4 4 -10 4 -5 0 -10
-5 -10 -11z"/>
<path d="M2520 4199 c0 -5 5 -7 10 -4 6 3 10 8 10 11 0 2 -4 4 -10 4 -5 0 -10
-5 -10 -11z"/>
<path d="M2648 4193 c6 -2 18 -2 25 0 6 3 1 5 -13 5 -14 0 -19 -2 -12 -5z"/>
<path d="M3524 4165 c10 -8 24 -11 29 -8 6 4 2 10 -9 14 -31 12 -40 9 -20 -6z"/>
<path d="M2379 4105 c-13 -7 -27 -11 -31 -8 -5 2 -11 -3 -14 -11 -3 -9 -11
-13 -17 -9 -6 3 -7 1 -3 -5 4 -7 2 -12 -4 -12 -6 0 -8 -4 -5 -10 3 -5 11 -10
16 -10 6 0 7 5 3 12 -5 7 -2 9 9 5 11 -4 15 -1 12 11 -2 11 4 18 13 19 36 4
82 16 86 22 8 12 -40 9 -65 -4z"/>
<path d="M3422 4110 c1 -3 -2 -17 -6 -32 -4 -15 -5 -36 -1 -47 7 -24 138 -138
173 -152 43 -17 92 25 83 71 -8 41 -158 156 -213 162 -20 2 -36 1 -36 -2z"/>
<path d="M2424 4045 c-84 -66 -99 -90 -84 -130 6 -16 5 -25 -3 -28 -6 -2 10
-4 36 -5 41 -2 55 3 100 37 29 21 62 49 75 60 12 12 26 20 30 17 12 -7 14 85
1 100 -25 31 -71 16 -155 -51z"/>
<path d="M3713 4035 c0 -8 4 -12 8 -9 4 2 15 -3 23 -12 9 -8 16 -11 16 -6 0 5
-10 17 -23 25 -19 12 -24 13 -24 2z"/>
<path d="M3286 4005 c-3 -8 -1 -15 4 -15 6 0 10 7 10 15 0 8 -2 15 -4 15 -2 0
-6 -7 -10 -15z"/>
<path d="M3387 3986 c-4 -10 -5 -21 -2 -24 9 -9 17 6 13 25 -3 17 -4 17 -11
-1z"/>
<path d="M3410 3983 c0 -19 21 -27 33 -13 9 10 9 11 -2 5 -8 -4 -17 -2 -22 6
-6 9 -9 10 -9 2z"/>
<path d="M3680 3981 c0 -5 7 -12 16 -15 14 -5 15 -4 4 9 -14 17 -20 19 -20 6z"/>
<path d="M2297 3939 c4 -13 8 -18 11 -10 2 7 -1 18 -6 23 -8 8 -9 4 -5 -13z"/>
<path d="M3483 3935 c0 -8 4 -12 9 -9 5 3 6 10 3 15 -9 13 -12 11 -12 -6z"/>
<path d="M3850 3920 c0 -5 7 -7 15 -4 8 4 15 8 15 10 0 2 -7 4 -15 4 -8 0 -15
-4 -15 -10z"/>
<path d="M3490 3904 c-8 -8 -9 -14 -4 -13 20 3 35 -2 29 -10 -9 -16 15 -24 31
-10 14 12 14 14 -1 25 -9 7 -24 10 -33 7 -10 -4 -13 -2 -8 5 10 17 1 15 -14
-4z m55 -22 c-3 -3 -11 0 -18 7 -9 10 -8 11 6 5 10 -3 15 -9 12 -12z"/>
<path d="M2287 3903 c-14 -13 -6 -33 13 -33 11 0 20 4 20 10 0 5 -8 6 -17 3
-12 -5 -15 -2 -10 10 7 18 5 21 -6 10z"/>
<path d="M3076 3897 c3 -10 9 -15 12 -12 3 3 0 11 -7 18 -10 9 -11 8 -5 -6z"/>
<path d="M3738 3793 c12 -2 32 -2 45 0 12 2 2 4 -23 4 -25 0 -35 -2 -22 -4z"/>
<path d="M2558 3783 c23 -2 61 -2 85 0 23 2 4 4 -43 4 -47 0 -66 -2 -42 -4z"/>
<path d="M3795 4200 c3 -5 8 -10 11 -10 2 0 4 5 4 10 0 6 -5 10 -11 10 -5 0
-7 -4 -4 -10z"/>
<path d="M2483 3583 c9 -2 23 -2 30 0 6 3 -1 5 -18 5 -16 0 -22 -2 -12 -5z"/>
<path d="M3305 3590 c-16 -7 -17 -9 -3 -9 9 -1 20 4 23 9 7 11 7 11 -20 0z"/>
<path d="M3345 3590 c3 -5 8 -10 11 -10 2 0 4 5 4 10 0 6 -5 10 -11 10 -5 0
-7 -4 -4 -10z"/>
<path d="M3278 3563 c7 -3 16 -2 19 1 4 3 -2 6 -13 5 -11 0 -14 -3 -6 -6z"/>
<path d="M2132 3350 c0 -19 2 -27 5 -17 2 9 2 25 0 35 -3 9 -5 1 -5 -18z"/>
<path d="M2030 3200 c-8 -5 -10 -10 -5 -10 6 0 17 5 25 10 8 5 11 10 5 10 -5
0 -17 -5 -25 -10z"/>
<path d="M3706 3544 c-3 -9 -2 -23 4 -32 7 -14 9 -10 10 16 0 35 -5 41 -14 16z"/>
<path d="M3700 3440 c0 -22 5 -40 10 -40 6 0 10 18 10 40 0 22 -4 40 -10 40
-5 0 -10 -18 -10 -40z"/>
<path d="M3528 3243 c6 -2 18 -2 25 0 6 3 1 5 -13 5 -14 0 -19 -2 -12 -5z"/>
<path d="M3138 3223 c7 -3 16 -2 19 1 4 3 -2 6 -13 5 -11 0 -14 -3 -6 -6z"/>
<path d="M3090 3210 c8 -5 24 -10 34 -10 26 0 18 6 -19 14 -22 5 -26 4 -15 -4z"/>
<path d="M2839 3159 c-42 -15 -54 -59 -53 -185 0 -93 3 -114 20 -136 26 -36
37 -38 197 -38 209 0 220 10 215 195 -2 66 -8 129 -13 140 -8 18 -7 18 6 5 9
-9 18 -22 21 -30 4 -8 5 -1 5 15 -2 36 3 35 -217 40 -89 2 -166 0 -181 -6z
m151 -179 l0 -60 -45 0 -45 0 0 60 0 60 45 0 45 0 0 -60z m110 -5 l0 -65 -50
0 -50 0 0 65 0 65 50 0 50 0 0 -65z"/>
<path d="M3220 2831 c0 -6 4 -13 10 -16 6 -3 7 1 4 9 -7 18 -14 21 -14 7z"/>
<path d="M3230 2781 c0 -8 -8 -10 -22 -6 -21 5 -21 5 -5 -6 20 -11 48 3 34 18
-4 3 -7 1 -7 -6z"/>
<path d="M2985 2630 c3 -5 8 -10 11 -10 2 0 4 5 4 10 0 6 -5 10 -11 10 -5 0
-7 -4 -4 -10z"/>
<path d="M3157 2589 c7 -7 15 -10 18 -7 3 3 -2 9 -12 12 -14 6 -15 5 -6 -5z"/>
<path d="M3261 2584 c0 -11 3 -14 6 -6 3 7 2 16 -1 19 -3 4 -6 -2 -5 -13z"/>
<path d="M3200 2576 c0 -2 9 -6 20 -9 11 -3 18 -1 14 4 -5 9 -34 13 -34 5z"/>
<path d="M3132 2534 c-22 -16 -32 -99 -15 -124 14 -20 49 -26 68 -12 15 11 45
71 45 92 0 9 -7 23 -15 30 -11 9 -12 15 -5 20 6 4 -6 6 -26 6 -20 -1 -44 -6
-52 -12z"/>
<path d="M2791 2531 c-7 -5 -17 -30 -22 -56 -11 -57 6 -85 50 -85 41 0 52 13
58 70 5 44 3 56 -13 67 -20 15 -53 17 -73 4z"/>
<path d="M2920 2400 c0 -5 5 -10 11 -10 5 0 7 5 4 10 -3 6 -8 10 -11 10 -2 0
-4 -4 -4 -10z"/>
<path d="M3283 2320 c0 -25 2 -35 4 -22 2 12 2 32 0 45 -2 12 -4 2 -4 -23z"/>
<path d="M3248 2153 c7 -3 16 -2 19 1 4 3 -2 6 -13 5 -11 0 -14 -3 -6 -6z"/>
<path d="M1905 2290 c-27 -7 -28 -8 -5 -8 14 0 34 3 45 8 25 11 2 11 -40 0z"/>
<path d="M1960 2210 c0 -5 17 -10 38 -9 33 1 34 2 12 9 -36 11 -50 11 -50 0z"/>
<path d="M3978 2283 c12 -2 32 -2 45 0 12 2 2 4 -23 4 -25 0 -35 -2 -22 -4z"/>
<path d="M4153 2283 c9 -2 25 -2 35 0 9 3 1 5 -18 5 -19 0 -27 -2 -17 -5z"/>
<path d="M4303 2283 c9 -2 25 -2 35 0 9 3 1 5 -18 5 -19 0 -27 -2 -17 -5z"/>
<path d="M3940 2263 c0 -13 5 -23 10 -23 13 0 13 11 0 30 -8 12 -10 11 -10 -7z"/>
<path d="M3995 2150 c4 -6 11 -8 16 -5 14 9 11 15 -7 15 -8 0 -12 -5 -9 -10z"/>
<path d="M661 4243 c-212 -211 -236 -489 -58 -667 95 -96 155 -110 248 -60 74
40 126 94 162 172 27 57 33 81 35 157 4 106 -17 182 -75 274 -60 96 -173 201
-215 201 -10 0 -54 -35 -97 -77z m136 -353 c17 -86 12 -164 -17 -235 l-12 -30
-13 37 c-25 69 -29 169 -10 253 11 49 20 74 26 68 6 -6 17 -47 26 -93z"/>
<path d="M5181 4275 c-186 -137 -271 -397 -188 -578 33 -73 115 -160 182 -193
63 -30 95 -25 175 26 172 110 228 337 134 536 -48 102 -186 254 -231 254 -6 0
-38 -20 -72 -45z m88 -347 c16 -70 14 -196 -6 -254 l-17 -49 -14 35 c-20 46
-22 219 -3 283 16 55 23 52 40 -15z"/>
<path d="M1125 3436 c-83 -20 -142 -55 -211 -123 -44 -43 -75 -85 -96 -129
l-30 -65 -20 38 c-78 146 -189 237 -326 269 -110 26 -152 -30 -152 -201 0
-119 24 -195 94 -300 162 -242 426 -302 655 -147 109 73 205 205 237 327 16
60 18 176 3 243 -17 84 -64 110 -154 88z m-552 -295 c44 -48 70 -98 61 -113
-4 -7 -3 -8 4 -4 7 4 18 -17 32 -60 11 -36 20 -70 20 -76 0 -18 -123 77 -156
120 -37 48 -68 124 -78 190 l-6 43 43 -30 c24 -16 60 -47 80 -70z m504 55 c0
-9 -6 -12 -16 -8 -13 5 -12 2 2 -12 10 -10 16 -24 14 -31 -3 -6 1 -12 9 -12
16 0 19 13 5 21 -12 8 -1 48 12 43 6 -2 13 -9 15 -17 3 -7 0 -10 -7 -6 -6 4
-11 3 -11 -3 0 -5 5 -11 12 -13 8 -3 6 -16 -9 -46 -11 -23 -24 -38 -28 -34 -5
4 -5 1 -1 -6 11 -19 -71 -111 -133 -149 -28 -18 -51 -31 -51 -30 2 25 39 115
45 110 4 -5 5 -2 1 4 -12 21 29 98 82 152 54 55 59 58 59 37z"/>
<path d="M1034 3069 c-3 -6 -2 -15 3 -20 5 -5 9 -1 9 11 0 23 -2 24 -12 9z"/>
<path d="M4792 3439 c-68 -26 -91 -236 -40 -376 14 -40 46 -101 72 -137 228
-319 621 -308 821 24 76 127 97 232 74 367 -13 73 -47 123 -84 123 -46 0 -154
-41 -215 -82 -64 -43 -135 -122 -166 -189 -11 -21 -21 -39 -24 -38 -3 0 -16
23 -30 51 -29 60 -106 148 -164 187 -84 56 -195 88 -244 70z m117 -208 c7 -5
11 -13 7 -19 -3 -6 1 -8 11 -6 56 15 189 -206 163 -269 -8 -20 -10 -18 -14 14
0 6 -10 18 -22 25 -17 12 -21 12 -21 1 0 -8 7 -14 15 -13 8 1 16 -7 17 -16 3
-14 0 -16 -15 -8 -11 6 -24 18 -29 28 -6 9 -11 13 -11 9 0 -18 -59 58 -85 110
-25 52 -49 153 -36 153 3 0 12 -4 20 -9z m642 -20 c-10 -6 -10 -10 -1 -16 28
-17 -28 -146 -93 -214 -43 -44 -108 -91 -127 -91 -16 0 -12 27 5 34 8 3 15 11
15 18 0 9 -3 8 -10 -2 -16 -25 -11 -1 11 51 12 27 26 46 32 42 6 -3 7 -1 3 5
-14 23 64 129 86 116 6 -4 8 -3 5 3 -9 15 29 47 45 37 7 -4 10 -4 6 1 -8 8 24
37 32 29 2 -3 -2 -9 -9 -13z"/>
<path d="M5490 3176 c0 -2 7 -7 16 -10 8 -3 12 -2 9 4 -6 10 -25 14 -25 6z"/>
<path d="M5465 3123 c-38 -45 -45 -68 -9 -28 16 18 24 23 20 12 -3 -10 -2 -16
3 -12 5 3 11 0 13 -6 2 -6 3 8 3 30 0 23 0 41 0 41 0 0 -13 -17 -30 -37z"/>
<path d="M5381 3000 c0 -8 4 -22 9 -30 6 -9 10 -11 10 -3 0 7 7 10 17 6 12 -5
14 -3 8 7 -6 10 -4 12 9 7 9 -4 15 -3 11 2 -7 13 -45 9 -46 -4 0 -5 -4 -1 -9
10 -6 13 -9 15 -9 5z"/>
<path d="M5371 2963 c-1 -6 -4 -20 -7 -30 -5 -17 -5 -17 6 0 6 10 9 23 6 30
-3 9 -5 9 -5 0z"/>
<path d="M1908 3033 c7 -3 16 -2 19 1 4 3 -2 6 -13 5 -11 0 -14 -3 -6 -6z"/>
<path d="M2195 2870 c-3 -6 1 -7 9 -4 18 7 21 14 7 14 -6 0 -13 -4 -16 -10z"/>
<path d="M1838 2773 c7 -3 16 -2 19 1 4 3 -2 6 -13 5 -11 0 -14 -3 -6 -6z"/>
<path d="M2395 2619 c-4 -6 -5 -12 -2 -15 2 -3 7 2 10 11 7 17 1 20 -8 4z"/>
<path d="M340 2570 c-24 -24 -27 -82 -4 -104 46 -46 116 -19 122 47 6 67 -71
104 -118 57z"/>
<path d="M5570 2570 c-28 -28 -26 -75 5 -105 27 -28 42 -30 78 -14 71 32 47
139 -30 139 -20 0 -41 -8 -53 -20z"/>
<path d="M579 2470 c-28 -17 -43 -66 -30 -99 21 -50 98 -61 125 -18 30 47 29
66 -3 97 -30 30 -62 37 -92 20z"/>
<path d="M5350 2460 c-26 -26 -27 -90 -2 -113 39 -35 113 -13 126 38 7 29 -15
79 -39 89 -31 12 -65 6 -85 -14z"/>
<path d="M723 1922 c-18 -2 -33 -8 -33 -14 0 -6 2 -9 6 -6 3 3 22 2 42 -3 20
-5 125 -11 232 -13 107 -1 176 -1 153 1 -24 2 -43 9 -43 15 0 7 -26 8 -80 3
-49 -4 -80 -3 -80 2 0 6 -31 8 -76 5 -42 -3 -79 -1 -83 4 -3 5 -21 8 -38 6z"/>
<path d="M1333 1923 c9 -2 25 -2 35 0 9 3 1 5 -18 5 -19 0 -27 -2 -17 -5z"/>
<path d="M1400 1921 c0 -5 9 -7 20 -4 11 3 20 7 20 9 0 2 -9 4 -20 4 -11 0
-20 -4 -20 -9z"/>
<path d="M2178 1923 c7 -3 16 -2 19 1 4 3 -2 6 -13 5 -11 0 -14 -3 -6 -6z"/>
<path d="M1457 1906 c-19 -8 -15 -10 28 -17 54 -8 464 -14 471 -7 2 3 -47 10
-109 17 -61 7 -125 15 -142 17 -28 3 -28 3 -5 -5 18 -7 1 -9 -60 -9 -69 1 -77
2 -40 8 35 5 27 7 -38 6 -46 -1 -93 -5 -105 -10z"/>
<path d="M3953 1913 c6 -10 -5 -13 -44 -13 -45 0 -50 -2 -39 -15 7 -8 18 -15
24 -15 6 0 4 5 -4 11 -11 7 11 9 75 5 50 -2 77 -2 61 1 -16 2 -41 12 -55 21
-14 10 -22 12 -18 5z"/>
<path d="M4923 1913 c15 -2 39 -2 55 0 15 2 2 4 -28 4 -30 0 -43 -2 -27 -4z"/>
<path d="M2120 1902 c0 -11 69 -27 78 -18 9 9 0 14 -40 21 -24 5 -38 3 -38 -3z"/>
<path d="M4234 1899 c-8 -13 69 -19 221 -17 108 2 135 4 95 9 -83 10 -311 16
-316 8z"/>
<path d="M1232 1888 c25 -7 43 -6 55 1 14 8 6 10 -37 10 -55 -1 -55 -1 -18
-11z"/>
<path d="M4138 1883 c12 -2 32 -2 45 0 12 2 2 4 -23 4 -25 0 -35 -2 -22 -4z"/>
<path d="M2296 1867 c3 -10 9 -15 12 -12 3 3 0 11 -7 18 -10 9 -11 8 -5 -6z"/>
<path d="M4798 1873 c23 -2 61 -2 85 0 23 2 4 4 -43 4 -47 0 -66 -2 -42 -4z"/>
<path d="M2451 1754 c0 -11 3 -14 6 -6 3 7 2 16 -1 19 -3 4 -6 -2 -5 -13z"/>
<path d="M944 1645 c29 -27 41 -31 51 -16 3 5 29 8 58 6 49 -3 50 -2 12 5 -30
6 -19 8 45 6 47 -2 76 0 65 4 -18 7 -18 8 -2 11 10 2 -43 5 -119 6 l-137 3 27
-25z m51 -5 c-3 -5 -10 -10 -16 -10 -5 0 -9 5 -9 10 0 6 7 10 16 10 8 0 12 -4
9 -10z"/>
<path d="M4818 1643 c7 -3 16 -2 19 1 4 3 -2 6 -13 5 -11 0 -14 -3 -6 -6z"/>
<path d="M2368 1623 c7 -3 16 -2 19 1 4 3 -2 6 -13 5 -11 0 -14 -3 -6 -6z"/>
<path d="M2458 1623 c12 -2 32 -2 45 0 12 2 2 4 -23 4 -25 0 -35 -2 -22 -4z"/>
<path d="M2860 1590 c20 -13 33 -13 25 0 -3 6 -14 10 -23 10 -15 0 -15 -2 -2
-10z"/>
<path d="M1375 1323 c-54 -13 -72 -70 -36 -114 19 -23 24 -24 156 -24 l137 0
24 28 c31 36 30 52 -5 88 -29 29 -30 29 -143 28 -62 -1 -122 -4 -133 -6z"/>
<path d="M4385 1321 c-43 -9 -63 -48 -45 -90 7 -18 24 -37 37 -42 41 -15 250
-11 282 6 49 25 56 82 15 114 -24 19 -39 21 -143 20 -64 -1 -129 -4 -146 -8z"/>
<path d="M2720 841 c-36 -10 -55 -54 -40 -91 20 -48 44 -52 334 -48 l268 3 24
28 c29 34 30 54 4 87 l-19 25 -273 2 c-150 1 -284 -2 -298 -6z"/>
</g>
</svg>
